<svg width="33" height="33" viewBox="0 0 33 33" fill="none" xmlns="http://www.w3.org/2000/svg">
<path fill-rule="evenodd" clip-rule="evenodd" d="M3.25023 1.38187C3.25023 1.17097 3.42846 1 3.64833 1H32.3115C32.5313 1 32.7096 1.17097 32.7096 1.38187V29.004C32.7096 29.2149 32.5313 29.3858 32.3115 29.3858C32.0916 29.3858 31.9134 29.2149 31.9134 29.004V1.76374H3.64833C3.42846 1.76374 3.25023 1.59277 3.25023 1.38187Z" fill="white" stroke="white" stroke-width="0.5"/>
<path d="M3.66802 29.5618L3.79302 29.5618L3.79302 29.4368L3.79302 5.67805L5.4189 7.30392C5.62195 7.50698 5.95117 7.50698 6.15423 7.30392C6.35728 7.10086 6.35728 6.77165 6.15423 6.56859L3.64073 4.05509C3.43767 3.85204 3.10845 3.85204 2.9054 4.05509L0.3919 6.56859C0.188843 6.77165 0.188845 7.10086 0.391899 7.30392C0.594957 7.50698 0.924175 7.50698 1.12723 7.30392L2.75311 5.67805L2.75311 29.4368L2.75311 29.5618L2.87811 29.5618L3.66802 29.5618Z" fill="white" stroke="white" stroke-width="0.25"/>
<path d="M2.75212 29.8317V29.9567H2.87712L26.7603 29.9567L25.1261 31.5824C24.922 31.7855 24.922 32.1151 25.1261 32.3182C25.3299 32.5209 25.6601 32.5209 25.8639 32.3182L28.3905 29.8047C28.5947 29.6016 28.5947 29.272 28.3905 29.0689L25.8639 26.5554C25.6601 26.3526 25.3299 26.3526 25.1261 26.5554C24.922 26.7585 24.922 27.0881 25.1261 27.2912L26.7603 28.9168L2.87712 28.9168H2.75212V29.0418V29.8317Z" fill="white" stroke="white" stroke-width="0.25"/>
<path fill-rule="evenodd" clip-rule="evenodd" d="M14.1624 1.11568C14.3167 1.26992 14.3167 1.51999 14.1624 1.67424L9.42294 6.41373C9.2687 6.56797 9.01862 6.56797 8.86438 6.41373C8.71014 6.25949 8.71014 6.00942 8.86438 5.85518L13.6039 1.11568C13.7581 0.96144 14.0082 0.96144 14.1624 1.11568Z" fill="white" stroke="white" stroke-width="0.5" stroke-linecap="round" stroke-linejoin="round"/>
<path fill-rule="evenodd" clip-rule="evenodd" d="M32.4622 19.9421C32.6164 20.0963 32.6164 20.3464 32.4622 20.5007L28.1177 24.8452C27.9634 24.9994 27.7133 24.9994 27.5591 24.8452C27.4049 24.6909 27.4049 24.4409 27.5591 24.2866L31.9036 19.9421C32.0579 19.7879 32.308 19.7879 32.4622 19.9421Z" fill="white" stroke="white" stroke-width="0.5" stroke-linecap="round" stroke-linejoin="round"/>
<path fill-rule="evenodd" clip-rule="evenodd" d="M20.085 1.11391C20.2402 1.26716 20.2418 1.51723 20.0885 1.67245L9.81964 12.073C9.66638 12.2282 9.41632 12.2298 9.2611 12.0766C9.10588 11.9233 9.10428 11.6732 9.25754 11.518L19.5264 1.11747C19.6797 0.962245 19.9298 0.960652 20.085 1.11391Z" fill="white" stroke="white" stroke-width="0.5" stroke-linecap="round" stroke-linejoin="round"/>
<path fill-rule="evenodd" clip-rule="evenodd" d="M32.5938 13.3588C32.748 13.5131 32.748 13.7632 32.5938 13.9174L22.5882 23.923C22.434 24.0772 22.1839 24.0772 22.0296 23.923C21.8754 23.7688 21.8754 23.5187 22.0296 23.3644L32.0352 13.3588C32.1895 13.2046 32.4396 13.2046 32.5938 13.3588Z" fill="white" stroke="white" stroke-width="0.5" stroke-linecap="round" stroke-linejoin="round"/>
<path fill-rule="evenodd" clip-rule="evenodd" d="M26.4084 1.24905C26.5614 1.40452 26.5594 1.65459 26.4039 1.80758L9.94729 18.0009C9.79181 18.1539 9.54174 18.1518 9.38875 17.9964C9.23576 17.8409 9.23778 17.5908 9.39326 17.4378L25.8498 1.24454C26.0053 1.09155 26.2554 1.09357 26.4084 1.24905Z" fill="white" stroke="white" stroke-width="0.5" stroke-linecap="round" stroke-linejoin="round"/>
<path fill-rule="evenodd" clip-rule="evenodd" d="M32.5939 7.17159C32.7481 7.32583 32.7481 7.5759 32.5939 7.73014L16.0056 24.3184C15.8514 24.4726 15.6013 24.4726 15.4471 24.3184C15.2928 24.1641 15.2928 23.9141 15.4471 23.7598L32.0353 7.17159C32.1896 7.01735 32.4396 7.01735 32.5939 7.17159Z" fill="white" stroke="white" stroke-width="0.5" stroke-linecap="round" stroke-linejoin="round"/>
<path fill-rule="evenodd" clip-rule="evenodd" d="M32.3306 1.24678C32.4848 1.40102 32.4848 1.6511 32.3306 1.80534L9.68631 24.4496C9.53206 24.6038 9.28199 24.6038 9.12775 24.4496C8.97351 24.2954 8.97351 24.0453 9.12775 23.891L31.772 1.24678C31.9263 1.09254 32.1763 1.09254 32.3306 1.24678Z" fill="white" stroke="white" stroke-width="0.5" stroke-linecap="round" stroke-linejoin="round"/>
</svg>
